<?xml version="1.0" encoding="UTF-8" standalone="no"?>
<!-- Created with Inkscape (http://www.inkscape.org/) -->

<svg
   xmlns:dc="http://purl.org/dc/elements/1.1/"
   xmlns:cc="http://creativecommons.org/ns#"
   xmlns:rdf="http://www.w3.org/1999/02/22-rdf-syntax-ns#"
   xmlns:svg="http://www.w3.org/2000/svg"
   xmlns="http://www.w3.org/2000/svg"
   xmlns:sodipodi="http://sodipodi.sourceforge.net/DTD/sodipodi-0.dtd"
   xmlns:inkscape="http://www.inkscape.org/namespaces/inkscape"
   width="1052.3622"
   height="744.09448"
   id="svg2"
   version="1.1"
   inkscape:version="0.48.4 r9939"
   sodipodi:docname="logo.svg">
  <defs
     id="defs4">
    <clipPath
       id="clipPath3037"
       clipPathUnits="userSpaceOnUse">
      <path
         id="path3039"
         d="m 0,376.471 605.28,0 L 605.28,0 0,0 0,376.471 z"
         inkscape:connector-curvature="0" />
    </clipPath>
  </defs>
  <sodipodi:namedview
     id="base"
     pagecolor="#ffffff"
     bordercolor="#666666"
     borderopacity="1.0"
     inkscape:pageopacity="0.0"
     inkscape:pageshadow="2"
     inkscape:zoom="0.35"
     inkscape:cx="375"
     inkscape:cy="520"
     inkscape:document-units="px"
     inkscape:current-layer="layer1"
     showgrid="false"
     inkscape:window-width="1024"
     inkscape:window-height="551"
     inkscape:window-x="0"
     inkscape:window-y="0"
     inkscape:window-maximized="1"
     borderlayer="false" />
  <metadata
     id="metadata7">
    <rdf:RDF>
      <cc:Work
         rdf:about="">
        <dc:format>image/svg+xml</dc:format>
        <dc:type
           rdf:resource="http://purl.org/dc/dcmitype/StillImage" />
        <dc:title></dc:title>
      </cc:Work>
    </rdf:RDF>
  </metadata>
  <g
     inkscape:label="Layer 1"
     inkscape:groupmode="layer"
     id="layer1"
     transform="translate(0,-308.2677)">
    <g
       transform="matrix(1.25,0,0,-1.25,130.27126,810.51386)"
       inkscape:label="CATNORMALRGBBLK"
       id="g3031">
      <g
         id="g3033">
        <g
           clip-path="url(#clipPath3037)"
           id="g3035">
          <g
             transform="translate(10.8911,75.4635)"
             id="g3041">
            <path
               id="path3043"
               style="fill:#000000;fill-opacity:1;fill-rule:nonzero;stroke:none"
               d="m 0,0 14.627,0 c 6.156,0 11.186,5.096 11.186,11.12 0,6.287 -5.03,11.251 -11.186,11.251 l -10.59,0 L 0,22.371 0,0 z m 30.049,-24.489 c -1.192,-0.728 -2.317,-1.059 -3.641,-1.059 -0.63,0 -1.264,0.096 -1.867,0.28 -0.507,0.154 -0.981,0.428 -1.422,0.72 -0.781,0.515 -1.471,1.16 -2.071,1.876 -0.754,0.901 -1.367,1.883 -1.871,2.942 -0.165,0.349 -0.331,0.697 -0.497,1.045 -0.231,0.484 -0.461,0.967 -0.691,1.451 l -0.838,1.759 -0.938,1.968 c -0.329,0.692 -0.659,1.384 -0.989,2.077 -0.331,0.695 -0.663,1.391 -0.994,2.086 l -0.952,1.998 c -0.287,0.603 -0.574,1.206 -0.861,1.809 l -0.725,1.522 c -0.18,0.378 -0.36,0.756 -0.541,1.134 -0.103,0.216 -0.205,0.432 -0.308,0.649 -0.005,0.008 -0.046,0.114 -0.055,0.114 l -10.788,0 0,-21.047 4.037,0 0,-2.052 -9.928,0 0,2.052 4.037,0 0,45.536 -4.037,0 0,1.986 4.037,0 5.891,0 11.186,0 c 6.949,-0.199 12.509,-6.089 12.509,-13.237 0,-7.149 -5.957,-13.238 -13.105,-13.238 l -1.589,0 c 0.052,-0.108 0.103,-0.217 0.154,-0.325 0.143,-0.301 0.285,-0.601 0.427,-0.901 0.215,-0.455 0.43,-0.91 0.646,-1.365 0.271,-0.573 0.541,-1.145 0.812,-1.717 0.309,-0.652 0.618,-1.305 0.927,-1.957 0.329,-0.695 0.658,-1.391 0.987,-2.086 0.331,-0.701 0.663,-1.402 0.995,-2.103 0.317,-0.669 0.633,-1.338 0.95,-2.007 0.284,-0.601 0.569,-1.201 0.853,-1.802 0.474,-1.001 0.946,-2.004 1.418,-3.006 0.374,-0.793 0.764,-1.454 1.363,-2.107 0.81,-0.884 1.861,-1.648 3.043,-1.877 1.225,-0.237 2.453,0.027 3.575,0.537 l 0.861,-1.655 z"
               inkscape:connector-curvature="0" />
          </g>
          <g
             transform="translate(115.3944,75.0003)"
             id="g3045">
            <path
               id="path3047"
               style="fill:#000000;fill-opacity:1;fill-rule:nonzero;stroke:none"
               d="m 0,0 c 0,-13.039 9.994,-23.43 22.702,-23.43 12.443,0 22.769,10.391 22.769,23.43 0,12.84 -10.326,23.496 -22.769,23.496 C 9.994,23.496 0,12.84 0,0 m -2.118,0 c 0,13.965 10.987,25.482 24.82,25.482 13.502,0 24.489,-11.517 24.489,-25.482 0,-14.098 -10.987,-25.482 -24.489,-25.482 -13.833,0 -24.82,11.384 -24.82,25.482"
               inkscape:connector-curvature="0" />
          </g>
          <g
             transform="translate(269.4714,66.9255)"
             id="g3049">
            <path
               id="path3051"
               style="fill:#000000;fill-opacity:1;fill-rule:nonzero;stroke:none"
               d="m 0,0 c 0,0.198 -0.397,3.839 -2.714,6.817 l -0.397,-0.397 -20.452,0 c -0.198,0 -4.037,0 -6.949,2.714 -0.398,0.397 -0.729,0.728 -1.125,1.257 l 0,-25.019 4.037,0 11.119,0 c 6.023,0 10.59,1.523 13.37,4.766 C 0.794,-5.626 0,0 0,0 m -31.637,30.976 0,-13.569 c 0,-2.978 0.926,-5.096 2.448,-6.817 2.316,-2.184 5.626,-2.184 5.626,-2.184 l 19.724,0 C -0.397,11.583 0,16.149 0,16.149 c 0,0.199 0.794,5.825 -3.111,10.061 -2.78,3.045 -7.347,4.766 -13.37,4.766 l -11.119,0 -4.037,0 z m 30.008,-42.118 c -0.986,-1.115 -2.14,-2.087 -3.396,-2.842 -2.053,-1.233 -4.385,-1.932 -6.742,-2.294 -1.558,-0.239 -3.137,-0.335 -4.714,-0.335 l -11.119,0 -6.024,0 -3.838,0 0,1.985 3.838,0 0,45.604 -3.838,0 0,1.985 3.838,0 6.024,0 11.119,0 c 6.751,0 11.715,-1.853 14.826,-5.494 1.41,-1.577 2.431,-3.469 3.04,-5.491 C 1.824,20.517 2.059,18.994 2.092,17.471 2.119,16.25 1.87,15.083 1.59,13.903 1.378,13.008 1.073,12.127 0.704,11.285 0.199,10.133 -0.453,9.044 -1.258,8.075 0.047,6.593 0.902,4.77 1.433,2.88 1.76,1.717 2.033,0.529 2.091,-0.682 2.134,-1.58 2.048,-2.496 1.918,-3.385 1.66,-5.156 1.118,-6.891 0.258,-8.464 c -0.52,-0.95 -1.158,-1.853 -1.887,-2.678"
               inkscape:connector-curvature="0" />
          </g>
          <g
             transform="translate(364.8406,73.7428)"
             id="g3053">
            <path
               id="path3055"
               style="fill:#000000;fill-opacity:1;fill-rule:nonzero;stroke:none"
               d="m 0,0 0,-21.445 3.905,0 0,-1.985 -9.928,0 0,1.985 4.037,0 0.133,21.048 c 0,0 -13.097,21.761 -13.105,21.775 -0.848,1.408 -2.222,2.577 -3.965,2.298 -0.533,-0.085 -1.048,-0.27 -1.529,-0.511 l -0.926,1.853 c 1.719,0.963 3.786,1.218 5.527,0.153 0.016,-0.009 0.032,-0.019 0.048,-0.029 0.848,-0.533 1.488,-1.295 2.024,-2.126 0.601,-0.929 1.184,-1.869 1.751,-2.819 0.192,-0.321 0.4,-0.633 0.599,-0.95 0.522,-0.834 1.045,-1.668 1.567,-2.502 0,0 8.803,-14.561 8.803,-14.561 l 13.105,21.974 -3.309,0 0,1.986 9.928,0 0,-1.986 -4.369,0 L 0,0 z"
               inkscape:connector-curvature="0" />
          </g>
          <path
             id="path3057"
             style="fill:#000000;fill-opacity:1;fill-rule:nonzero;stroke:none"
             d="m 497.077,50.313 -9.862,0 0,1.985 9.862,0 0,-1.985 z m -10.061,43.22 c -2.78,2.912 -6.949,4.368 -12.443,4.368 l -11.185,0 0,-45.603 4.037,0 0,-1.985 -9.862,0 0,1.985 3.839,0 0,45.603 -3.631,0 0,1.985 16.802,0 c 6.023,0 10.59,-1.786 13.899,-5.096 3.103,-3.102 4.366,-7.423 4.549,-11.709 0.097,-2.263 0.018,-4.535 0.018,-6.795 l 0,-4.941 0,-10.546 0,-7.439 0,-1.062 -1.985,0 0,3.684 0,8.567 0,9.744 0,4.153 c 0,2.055 0.117,4.126 -0.026,6.181 -0.226,3.245 -1.772,6.561 -4.012,8.906"
             inkscape:connector-curvature="0" />
          <g
             transform="translate(581.0671,50.2623)"
             id="g3059">
            <path
               id="path3061"
               style="fill:#000000;fill-opacity:1;fill-rule:nonzero;stroke:none"
               d="m 0,0 c -4.345,1.284 -8.282,4.353 -10.089,8.574 -1.01,2.36 -1.035,4.714 -1.035,7.229 0,0 1.919,0 1.919,0 0,-1.241 -0.05,-2.489 0.149,-3.719 C -8.291,7.355 -4.747,3.862 -0.362,2.252 -0.15,2.174 0.064,2.101 0.279,2.031 4.223,0.757 8.679,1 12.085,3.517 c 3.425,2.53 5.635,7.523 5.026,11.774 -0.226,1.573 -0.889,3.045 -1.9,4.269 -2.763,3.345 -7.242,4.404 -11.126,5.86 -4.224,1.584 -8.863,3.561 -11.092,7.757 -2.124,3.998 -1.586,9.074 1.385,12.495 0.988,1.138 2.206,2.067 3.554,2.736 4.217,2.091 9.466,2.142 13.594,-0.177 2.091,-1.175 3.756,-2.845 5.082,-4.828 0,0 -1.782,-0.924 -1.787,-0.927 0.072,0.038 -1.055,1.503 -1.157,1.62 -0.509,0.581 -1.078,1.109 -1.693,1.577 -2.694,2.046 -6.136,2.724 -9.446,2.175 -3.996,-0.661 -7.779,-3.249 -8.636,-7.396 -0.958,-4.639 1.593,-8.68 5.574,-10.889 1.586,-0.88 3.294,-1.461 4.953,-2.173 1.768,-0.758 3.569,-1.447 5.351,-2.17 2.036,-0.826 4.067,-1.726 5.745,-3.175 1.592,-1.375 2.879,-3.276 3.394,-5.33 0.61,-2.433 0.255,-4.985 -0.571,-7.324 C 17.545,7.152 16.442,5.016 14.741,3.332 11.318,-0.056 6.424,-1.27 1.745,-0.416 1.158,-0.309 0.575,-0.17 0,0"
               inkscape:connector-curvature="0" />
          </g>
          <g
             transform="translate(123.4372,5.1831)"
             id="g3063">
            <path
               id="path3065"
               style="fill:#000000;fill-opacity:1;fill-rule:nonzero;stroke:none"
               d="m 0,0 c -3.668,0 -6.69,3.133 -6.69,6.912 0,3.815 3.022,6.895 6.69,6.895 l 2.378,0 0,-0.556 -2.378,0 c -3.373,0 -6.137,-2.818 -6.137,-6.339 0,-3.484 2.764,-6.36 6.137,-6.36 l 2.378,0 L 2.378,0 0,0 z"
               inkscape:connector-curvature="0" />
          </g>
          <g
             transform="translate(146.7011,12.8575)"
             id="g3067">
            <path
               id="path3069"
               style="fill:#000000;fill-opacity:1;fill-rule:nonzero;stroke:none"
               d="M 0,0 C 0.076,0.078 0.143,0.165 0.204,0.256 0.534,0.745 0.669,1.324 0.669,1.909 0.633,2.464 0.356,3.623 -0.455,4.49 -1.247,5.265 -2.371,5.688 -3.791,5.745 -5.246,5.688 -6.334,5.265 -7.089,4.49 -8.288,3.275 -8.214,1.561 -8.214,1.561 l 0,-2.176 0.886,0 2.016,0 c 1.043,0 2.086,-0.001 3.13,0.003 0.35,0.001 0.702,0.002 1.048,0.063 0.399,0.069 0.801,0.229 1.097,0.512 C -0.024,-0.025 -0.012,-0.012 0,0 M -3.569,6.264 C -2.946,6.247 -2.324,6.144 -1.74,5.944 -1.095,5.721 -0.542,5.365 -0.068,4.878 0.696,4.093 1.094,3.038 1.196,1.96 1.243,1.475 1.222,0.991 1.222,0.507 c 0,-0.53 0,-1.059 0,-1.588 0,-1.247 0,-2.493 0,-3.74 l 0,-2.262 c 0.388,0 0.775,0 1.162,0 l 0,-0.552 -2.839,0 0,0.552 1.124,0 c 0,2.359 0.001,4.718 0.001,7.077 0,-0.067 -0.173,-0.219 -0.218,-0.268 C 0.37,-0.362 0.283,-0.445 0.191,-0.522 0.006,-0.676 -0.198,-0.807 -0.414,-0.911 c -0.415,-0.2 -0.851,-0.278 -1.308,-0.292 -0.38,-0.013 -0.762,0 -1.142,0 l -1.865,0 -1.927,0 -1.326,0 -0.232,0 0,-5.88 1.088,0 0,-0.552 -2.802,0 0,0.552 c 0,0 1.124,0 1.124,0 l 0,0.745 0,1.826 0,2.295 0,2.153 c 0,0.396 -0.011,0.792 -0.007,1.188 0.003,0.385 0.018,0.773 0.073,1.154 0.053,0.366 0.14,0.726 0.272,1.071 0.12,0.318 0.274,0.623 0.459,0.907 0.145,0.222 0.31,0.43 0.494,0.622 0.671,0.699 1.571,1.102 2.515,1.274 0.466,0.086 0.948,0.124 1.429,0.112"
               inkscape:connector-curvature="0" />
          </g>
          <g
             transform="translate(170.6246,18.9896)"
             id="g3071">
            <path
               id="path3073"
               style="fill:#000000;fill-opacity:1;fill-rule:nonzero;stroke:none"
               d="m 0,0 0,-0.057 0,-0.498 0,-2.266 -0.553,0 0,2.266 -4.774,0 0,-12.699 1.18,0 0,-0.553 -2.82,0 0,0.553 1.087,0 0,12.699 -4.662,0 0,-2.266 -0.553,0 0,2.266 0,0.498 0,0.057 5.363,0 0.368,0 L 0,0 z"
               inkscape:connector-curvature="0" />
          </g>
          <g
             transform="translate(194.2278,18.4913)"
             id="g3075">
            <path
               id="path3077"
               style="fill:#000000;fill-opacity:1;fill-rule:nonzero;stroke:none"
               d="m 0,0 0,-12.756 1.069,0 0,-0.57 -2.783,0 0,0.57 1.143,0 0,12.756 c 0,0.013 -0.732,-0.163 -0.784,-0.18 -0.382,-0.129 -0.743,-0.317 -1.063,-0.561 -0.875,-0.668 -1.207,-1.654 -1.567,-2.647 -0.311,-0.859 -0.623,-1.717 -0.934,-2.576 -0.093,-0.255 -0.185,-0.51 -0.278,-0.765 l -0.793,0 0,0.057 c -0.156,0.43 -0.313,0.86 -0.469,1.291 -0.277,0.76 -0.553,1.521 -0.829,2.282 -0.207,0.569 -0.383,1.133 -0.747,1.625 -0.295,0.398 -0.669,0.733 -1.097,0.981 -0.448,0.259 -0.952,0.428 -1.465,0.493 l 0,-12.756 1.068,0 0,-0.57 -2.783,0 0,0.57 1.125,0 0,12.756 -1.125,0 0,0.516 1.383,0 0.091,0 c 1.206,0 2.331,-0.597 3.1,-1.511 0.043,-0.051 0.085,-0.103 0.125,-0.155 0.314,-0.408 0.511,-0.854 0.689,-1.332 0.277,-0.747 0.554,-1.493 0.832,-2.24 0.175,-0.472 0.35,-0.944 0.526,-1.416 0.204,0.556 0.408,1.112 0.613,1.669 0.23,0.626 0.439,1.26 0.677,1.884 0.211,0.556 0.439,1.086 0.811,1.555 0.736,0.93 1.891,1.533 3.083,1.552 C 0.101,0.529 0.586,0.516 1.069,0.516 L 1.069,0 0,0 z"
               inkscape:connector-curvature="0" />
          </g>
          <g
             transform="translate(209.2626,5.7744)"
             id="g3079">
            <path
               id="path3081"
               style="fill:#000000;fill-opacity:1;fill-rule:nonzero;stroke:none"
               d="m 0,0 0,-0.573 -2.746,0 0,0.573 1.031,0 0,12.66 -1.087,0 0,0.591 2.746,0 0,-0.591 -1.087,0 L -1.143,0 0,0 z"
               inkscape:connector-curvature="0" />
          </g>
          <path
             id="path3083"
             style="fill:#000000;fill-opacity:1;fill-rule:nonzero;stroke:none"
             d="m 231.46,5.201 -2.746,0 0,0.555 2.746,0 0,-0.555 z m -2.802,12.036 c -0.774,0.81 -1.935,1.215 -3.465,1.215 l -3.114,0 0,-12.696 1.124,0 0,-0.555 -2.747,0 0,0.555 1.07,0 0,12.696 -1.125,0 0,0.556 4.792,0 c 1.677,0 2.949,-0.499 3.871,-1.42 0.829,-0.865 1.243,-2.055 1.275,-3.241 0.016,-0.593 -0.004,-1.19 -0.004,-1.783 l 0,-2.179 0,-2.28 0,-1.749 0,-0.6 -0.553,0 0,0.814 0,1.968 0,2.413 0,2.146 c 0,0.658 0.046,1.321 -0.047,1.975 -0.07,0.492 -0.273,0.992 -0.521,1.421 -0.155,0.268 -0.342,0.519 -0.556,0.744"
             inkscape:connector-curvature="0" />
          <g
             transform="translate(253.025,9.812)"
             id="g3085">
            <path
               id="path3087"
               style="fill:#000000;fill-opacity:1;fill-rule:nonzero;stroke:none"
               d="m 0,0 c 0.055,0.781 0.011,1.586 0.011,2.346 0,0.715 -0.024,1.435 0,2.149 0,0 0.055,1.678 -1.124,2.912 -0.83,0.81 -1.935,1.215 -3.484,1.215 l -3.096,0 -1.069,0 0,-12.699 1.106,0 3.059,0 c 1.549,0 2.728,0.409 3.484,1.219 C -0.328,-2.06 -0.074,-1.052 0,0 M 0.575,-0.057 C 0.511,-0.802 0.37,-1.538 0.038,-2.217 -0.152,-2.609 -0.4,-2.973 -0.708,-3.281 -1.611,-4.185 -2.901,-4.647 -4.597,-4.647 l -3.059,0 -1.438,0 -1.326,0 0,0.57 1.087,0 0,12.699 -1.124,0 0,0.574 1.124,0 1.64,0 3.096,0 c 1.696,0 2.986,-0.517 3.889,-1.438 C 0.619,6.392 0.583,4.549 0.583,4.495 0.583,3.338 0.653,2.158 0.626,0.992 0.618,0.643 0.605,0.292 0.575,-0.057"
               inkscape:connector-curvature="0" />
          </g>
          <g
             transform="translate(267.1658,5.7744)"
             id="g3089">
            <path
               id="path3091"
               style="fill:#000000;fill-opacity:1;fill-rule:nonzero;stroke:none"
               d="m 0,0 0,-0.573 -2.746,0 0,0.573 1.031,0 0,12.66 -1.087,0 0,0.591 2.746,0 0,-0.591 -1.087,0 L -1.143,0 0,0 z"
               inkscape:connector-curvature="0" />
          </g>
          <path
             id="path3093"
             style="fill:#000000;fill-opacity:1;fill-rule:nonzero;stroke:none"
             d="m 289.362,5.201 -2.745,0 0,0.555 2.745,0 0,-0.555 z m -2.8,12.036 c -0.775,0.81 -1.936,1.215 -3.465,1.215 l -3.116,0 0,-12.696 1.124,0 0,-0.555 -2.745,0 0,0.555 1.069,0 0,12.696 -1.124,0 0,0.556 4.792,0 c 1.676,0 2.948,-0.499 3.87,-1.42 1.327,-1.384 1.271,-3.209 1.271,-3.317 l 0,-8.515 c 0,0 -0.552,0 -0.552,0 l 0,2.799 c 0,1.218 0.008,2.436 0,3.654 -0.008,1.109 0.101,2.259 -0.168,3.351 -0.149,0.607 -0.525,1.226 -0.956,1.677"
             inkscape:connector-curvature="0" />
          <g
             transform="translate(310.3674,5.2011)"
             id="g3095">
            <path
               id="path3097"
               style="fill:#000000;fill-opacity:1;fill-rule:nonzero;stroke:none"
               d="m 0,0 -4.718,0 c -1.64,0 -2.967,0.462 -3.889,1.384 -0.679,0.698 -1.069,1.624 -1.214,2.58 -0.128,0.841 -0.057,1.712 -0.057,2.561 0,1.609 -0.144,3.394 0.591,4.881 0.177,0.358 0.405,0.691 0.68,0.981 0.922,0.921 2.249,1.438 3.889,1.438 l 4.479,0 0,-0.574 -4.479,0 c -1.511,0 -2.671,-0.405 -3.465,-1.233 -1.031,-1.087 -1.142,-2.543 -1.142,-2.84 l 0,-4.496 c 0,-0.054 -0.056,-1.732 1.142,-2.893 0.794,-0.811 1.954,-1.234 3.465,-1.234 l 4.202,0 0,3.629 c 0,0.81 -0.239,1.402 -0.644,1.9 C -1.825,6.69 -2.764,6.69 -2.764,6.69 l -2.783,0 0,0.48 2.783,0 c 0.055,0 1.161,0.057 1.954,-0.756 C -0.428,6.021 -0.246,5.631 -0.084,5.11 0.001,4.834 -0.003,4.522 0.006,4.232 0.031,3.48 0,2.723 0,1.969 L 0,0.259 0,0 z"
               inkscape:connector-curvature="0" />
          </g>
          <g
             transform="translate(342.6236,5.1831)"
             id="g3099">
            <path
               id="path3101"
               style="fill:#000000;fill-opacity:1;fill-rule:nonzero;stroke:none"
               d="m 0,0 c -2.506,0.81 -3.151,2.803 -3.096,3.854 l 0,0.552 0.534,0 0,-0.552 c 0,-0.111 -0.055,-2.452 2.709,-3.302 2.692,-0.846 3.945,1.162 3.981,1.237 0.359,0.596 0.658,1.27 0.689,1.975 C 4.847,4.451 4.563,5.127 4.09,5.618 3.883,5.831 3.649,6.021 3.393,6.171 3.085,6.351 2.741,6.456 2.411,6.585 2.158,6.684 1.905,6.784 1.652,6.883 0.946,7.159 0.221,7.399 -0.442,7.774 c -0.529,0.299 -1.012,0.707 -1.354,1.212 -0.223,0.329 -0.385,0.7 -0.462,1.09 -0.033,0.167 -0.046,0.334 -0.046,0.504 -0.046,0.934 0.319,1.813 1.022,2.43 0.817,0.717 2.045,1.005 3.112,0.88 0.761,-0.09 1.472,-0.42 2.047,-0.925 0.285,-0.251 0.544,-0.542 0.75,-0.875 0,0 -0.498,-0.255 -0.499,-0.255 0.012,0.006 -0.17,0.267 -0.181,0.28 -0.151,0.199 -0.327,0.379 -0.52,0.538 -0.603,0.495 -1.363,0.745 -2.141,0.73 -1.032,-0.019 -2.088,-0.405 -2.663,-1.306 -0.285,-0.445 -0.399,-0.972 -0.373,-1.497 0,-0.147 -0.093,-1.75 2.304,-2.671 L 3.189,6.837 C 3.245,6.801 4.663,6.303 5.198,4.904 5.53,3.89 5.328,2.803 4.589,1.513 c 0,0 -1.05,-1.696 -3.187,-1.696 C 0.941,-0.183 0.498,-0.147 0,0"
               inkscape:connector-curvature="0" />
          </g>
          <g
             transform="translate(368.4748,19.0076)"
             id="g3103">
            <path
               id="path3105"
               style="fill:#000000;fill-opacity:1;fill-rule:nonzero;stroke:none"
               d="m 0,0 0,-0.555 0,-2.191 -0.554,0 0,2.191 -6.579,0 c 0,0 -1.07,0 -1.07,0 l 0,-1.33 0,-2.787 0,-2.45 c 0,-0.187 -0.005,-0.376 10e-4,-0.562 0.162,0.385 0.586,0.626 0.95,0.79 0.627,0.283 1.273,0.276 1.944,0.276 l 1.612,0 0.654,0 0,-0.516 c -0.878,0 -1.758,-0.012 -2.636,0 -0.411,0.005 -0.836,-0.057 -1.22,-0.209 -0.951,-0.375 -1.305,-1.32 -1.305,-2.28 l 0,-3.628 1.126,0 6.376,0 0,2.191 0.572,0 0,-2.747 -0.278,0 -0.294,0 -6.376,0 -1.42,0 -1.327,0 0,0.556 1.069,0 0,12.696 -1.124,0 0,0.555 1.124,0 1.622,0 6.579,0 L 0,0 z"
               inkscape:connector-curvature="0" />
          </g>
          <g
             transform="translate(381.2578,12.2064)"
             id="g3107">
            <path
               id="path3109"
               style="fill:#000000;fill-opacity:1;fill-rule:nonzero;stroke:none"
               d="m 0,0 4.073,0 c 1.715,0 3.115,1.42 3.115,3.094 0,1.753 -1.4,3.134 -3.115,3.134 l -2.949,0 L 0,6.228 0,0 z M 8.368,-6.819 C 8.385,-6.852 7.895,-7.038 7.847,-7.051 7.683,-7.095 7.509,-7.117 7.34,-7.114 6.999,-7.109 6.659,-6.999 6.38,-6.802 5.798,-6.392 5.486,-5.784 5.183,-5.162 4.995,-4.776 4.813,-4.387 4.629,-4 c -0.225,0.473 -0.45,0.945 -0.675,1.417 -0.201,0.42 -0.401,0.841 -0.601,1.261 -0.111,0.231 -0.221,0.463 -0.349,0.731 l -3.004,0 0,-5.859 1.124,0 0,-0.573 -2.764,0 0,0.573 1.124,0 0,12.678 -1.124,0 0,0.555 1.124,0 1.64,0 3.116,0 C 6.175,6.726 7.723,5.087 7.723,3.094 c 0,-1.989 -1.659,-3.685 -3.65,-3.685 l -0.441,0 c 0,0 2.285,-4.828 2.285,-4.83 0.148,-0.311 0.344,-0.618 0.623,-0.827 0.275,-0.206 0.639,-0.298 0.978,-0.275 0.212,0.013 0.417,0.076 0.61,0.163 0,0 0.24,-0.459 0.24,-0.459"
               inkscape:connector-curvature="0" />
          </g>
          <g
             transform="translate(411.6246,18.4523)"
             id="g3111">
            <path
               id="path3113"
               style="fill:#000000;fill-opacity:1;fill-rule:nonzero;stroke:none"
               d="m 0,0 c 0,0 -1.144,0 -1.144,0 -0.101,-0.506 -0.202,-1.011 -0.303,-1.517 -0.228,-1.142 -0.457,-2.285 -0.685,-3.427 l -0.733,-3.663 c -0.154,-0.771 -0.285,-1.548 -0.467,-2.313 -0.157,-0.658 -0.38,-1.332 -0.832,-1.851 -0.394,-0.453 -0.922,-0.624 -1.518,-0.597 -1.423,0.063 -1.948,1.64 -2.177,2.81 -0.154,0.782 -0.305,1.564 -0.465,2.345 -0.24,1.167 -0.479,2.334 -0.718,3.501 -0.219,1.068 -0.438,2.135 -0.657,3.202 -0.102,0.502 -0.205,1.003 -0.309,1.51 l -1.088,0 0,0.555 2.764,0 0,-0.555 c 0,0 -1.068,0 -1.068,0 0.092,-0.451 0.184,-0.903 0.277,-1.354 0.213,-1.041 0.426,-2.081 0.639,-3.121 0.238,-1.162 0.476,-2.324 0.714,-3.485 0.141,-0.685 0.286,-1.391 0.431,-2.084 0.14,-0.668 0.241,-1.36 0.556,-1.974 0.125,-0.244 0.289,-0.484 0.522,-0.636 0.622,-0.405 1.506,-0.15 1.878,0.451 0.279,0.452 0.388,0.966 0.492,1.479 0.225,1.102 0.45,2.203 0.675,3.305 0.248,1.207 0.495,2.415 0.743,3.623 0.201,0.982 0.402,1.965 0.603,2.948 C -1.86,-0.8 -1.723,0 -1.696,0 l -1.088,0 0,0.555 L 0,0.555 0,0 z"
               inkscape:connector-curvature="0" />
          </g>
          <g
             transform="translate(425.8453,5.7744)"
             id="g3115">
            <path
               id="path3117"
               style="fill:#000000;fill-opacity:1;fill-rule:nonzero;stroke:none"
               d="m 0,0 0,-0.573 -2.746,0 0,0.573 1.032,0 0,12.66 -1.086,0 0,0.591 2.744,0 0,-0.591 -1.086,0 L -1.142,0 0,0 z"
               inkscape:connector-curvature="0" />
          </g>
          <g
             transform="translate(443.6947,5.1831)"
             id="g3119">
            <path
               id="path3121"
               style="fill:#000000;fill-opacity:1;fill-rule:nonzero;stroke:none"
               d="m 0,0 c -3.668,0 -6.69,3.133 -6.69,6.912 0,3.815 3.022,6.895 6.69,6.895 l 2.377,0 0,-0.556 -2.377,0 c -3.372,0 -6.138,-2.818 -6.138,-6.339 0,-3.484 2.766,-6.36 6.138,-6.36 l 2.377,0 L 2.377,0 0,0 z"
               inkscape:connector-curvature="0" />
          </g>
          <g
             transform="translate(466.8371,19.0076)"
             id="g3123">
            <path
               id="path3125"
               style="fill:#000000;fill-opacity:1;fill-rule:nonzero;stroke:none"
               d="m 0,0 0,-0.555 0,-2.191 -0.554,0 0,2.191 -6.579,0 -1.07,0 0,-7.132 c 0.432,0.724 1.417,1.081 2.25,1.069 l 2.911,0 0,-0.516 -1.673,0 c -0.882,0 -1.902,0.116 -2.65,-0.456 -0.633,-0.485 -0.838,-1.268 -0.838,-2.033 l 0,-3.628 1.126,0 6.376,0 0,2.191 0.572,0 0,-2.747 -0.278,0 -0.294,0 -6.376,0 -1.42,0 -1.327,0 0,0.556 1.069,0 0,12.696 -1.124,0 0,0.555 1.124,0 1.622,0 6.579,0 L 0,0 z"
               inkscape:connector-curvature="0" />
          </g>
          <g
             transform="translate(481.0563,5.1831)"
             id="g3127">
            <path
               id="path3129"
               style="fill:#000000;fill-opacity:1;fill-rule:nonzero;stroke:none"
               d="m 0,0 c -2.506,0.81 -3.151,2.803 -3.096,3.854 l 0,0.552 0.534,0 0,-0.552 c 0,-0.111 -0.055,-2.452 2.711,-3.302 2.69,-0.846 3.943,1.162 3.979,1.237 C 4.526,2.45 4.839,3.214 4.802,3.999 4.771,4.663 4.453,5.267 3.973,5.718 3.442,6.218 2.695,6.496 2.02,6.753 0.61,7.292 -1.032,7.739 -1.875,9.108 c -0.108,0.176 -0.199,0.363 -0.269,0.558 -0.492,1.365 0.09,2.933 1.324,3.683 1.071,0.651 2.561,0.76 3.709,0.252 0.724,-0.32 1.306,-0.854 1.738,-1.511 0,0 -0.498,-0.255 -0.499,-0.255 0.027,0.013 -0.347,0.481 -0.37,0.505 -0.308,0.334 -0.685,0.604 -1.102,0.784 -1.213,0.52 -2.839,0.293 -3.756,-0.69 -0.486,-0.522 -0.65,-1.156 -0.65,-1.854 0,-0.147 -0.093,-1.75 2.304,-2.671 L 3.189,6.837 C 3.245,6.801 4.663,6.303 5.198,4.904 5.53,3.89 5.327,2.803 4.589,1.513 c 0,0 -1.05,-1.696 -3.187,-1.696 C 0.941,-0.183 0.498,-0.147 0,0"
               inkscape:connector-curvature="0" />
          </g>
          <g
             transform="translate(402.7215,220.6091)"
             id="g3131">
            <path
               id="path3133"
               style="fill:#000000;fill-opacity:1;fill-rule:nonzero;stroke:none"
               d="m 0,0 c 1.132,0.526 2.257,1.068 3.372,1.631 1.045,0.523 2.335,1.153 3.826,1.936 1.491,0.769 3.181,1.614 4.964,2.613 1.813,0.983 3.765,2.044 5.793,3.242 2.044,1.168 4.149,2.49 6.316,3.857 2.167,1.383 4.38,2.89 6.562,4.457 1.091,0.814 2.182,1.629 3.273,2.443 1.091,0.846 2.136,1.752 3.196,2.613 1.076,0.86 2.09,1.782 3.089,2.72 0.984,0.953 2.044,1.813 2.951,2.827 0.937,0.984 1.859,1.952 2.766,2.92 0.876,0.984 1.69,2.029 2.505,3.012 0.399,0.507 0.83,0.984 1.198,1.491 0.369,0.522 0.723,1.045 1.076,1.552 0.691,1.029 1.429,1.982 2.029,2.996 1.137,2.06 2.351,3.934 3.104,5.84 0.43,0.937 0.83,1.829 1.214,2.674 0.323,0.86 0.584,1.721 0.86,2.489 0.538,1.568 0.999,2.936 1.214,4.103 0.446,2.014 0.738,3.274 0.799,3.566 -0.092,-0.277 -0.491,-1.506 -1.121,-3.473 -0.308,-1.138 -0.892,-2.444 -1.553,-3.934 -0.338,-0.738 -0.66,-1.552 -1.06,-2.367 C 55.928,48.409 55.451,47.579 54.959,46.703 54.053,44.921 52.716,43.199 51.44,41.325 50.779,40.387 49.965,39.527 49.227,38.589 48.843,38.128 48.459,37.667 48.06,37.206 47.66,36.745 47.214,36.315 46.784,35.869 45.908,34.993 45.047,34.071 44.126,33.195 43.157,32.35 42.189,31.49 41.221,30.629 40.268,29.753 39.177,29 38.148,28.186 37.118,27.356 36.073,26.557 34.951,25.835 33.86,25.097 32.784,24.313 31.678,23.606 30.556,22.915 29.434,22.239 28.328,21.547 26.084,20.226 23.841,18.965 21.643,17.828 19.43,16.691 17.294,15.6 15.204,14.647 13.145,13.664 11.163,12.803 9.334,12.019 7.521,11.205 5.815,10.544 4.324,9.929 2.849,9.315 1.512,8.792 0.406,8.362 0.175,8.27 -0.055,8.178 -0.271,8.101 c -4.01,4.164 -9.327,4.625 -19.946,3.857 -10.419,-0.784 -15.721,3.196 -17.211,5.686 -1.261,2.105 -3.212,3.903 -5.671,6.193 -2.366,2.182 -5.302,4.917 -8.36,8.652 -3.964,4.84 -3.242,9.65 2.505,16.596 6.316,7.622 6.377,10.88 5.671,23.451 -0.415,7.407 3.826,11.832 12.678,20.33 2.335,2.244 4.978,4.78 7.729,7.623 9.082,9.42 5.978,23.619 2.228,33.162 8.355,-3.874 16.774,-7.612 25.287,-11.126 5.748,-2.373 11.539,-4.644 17.389,-6.754 6.438,-2.322 13.005,-4.258 19.361,-6.807 7.286,-2.921 13.878,-7.338 19.917,-12.313 0.573,-0.472 1.144,-0.948 1.706,-1.433 11.433,-9.805 49.421,-44.765 58.149,-83.152 7.915,-34.761 -1.844,-84.828 -3.088,-90.913 l 7.852,0 c 2.152,10.818 10.619,57.98 2.736,92.618 -9.267,40.693 -48.761,77.098 -60.655,87.286 -6.135,5.261 -12.798,10.014 -20.122,13.479 -5.877,2.782 -12.108,4.602 -18.243,6.701 -4.288,1.467 -8.542,3.031 -12.769,4.668 -6.359,2.463 -12.657,5.084 -18.91,7.806 -8.456,3.68 -16.797,7.6 -25.141,11.527 l -11.74,5.624 6.808,-11.095 c 0.03,-0.061 3.749,-6.177 5.931,-13.646 2.674,-9.159 1.921,-15.982 -2.228,-20.285 -2.659,-2.75 -5.132,-5.132 -7.514,-7.422 -8.76,-8.406 -15.675,-15.045 -15.03,-26.309 0.646,-11.587 0.707,-12.524 -3.918,-18.133 -8.053,-9.712 -8.898,-18.579 -2.536,-26.355 3.396,-4.134 6.547,-7.069 9.082,-9.42 1.936,-1.798 3.612,-3.35 4.303,-4.518 3.12,-5.179 11.157,-10.373 24.373,-9.389 5.071,0.384 8.205,0.384 10.265,0.092 -4.503,-1.86 -8.959,-3.627 -13.324,-5.348 -11.602,-4.595 -22.574,-8.944 -31.656,-13.846 -34.346,-18.579 -45.871,-59.164 -47.147,-64.035 l 7.991,0 c 2.72,8.928 14.415,41.922 42.798,57.274 8.698,4.687 19.455,8.943 30.842,13.461 C -13.238,-5.477 -6.488,-3.012 0,0"
               inkscape:connector-curvature="0" />
          </g>
          <g
             transform="translate(239.6852,198.2943)"
             id="g3135">
            <path
               id="path3137"
               style="fill:#000000;fill-opacity:1;fill-rule:nonzero;stroke:none"
               d="m 0,0 c -2.645,1.584 -5.362,3.049 -8.065,4.533 -5.865,3.22 -11.881,6.172 -18.162,8.494 -7.547,2.79 -15.425,4.658 -23.439,5.419 -9.82,0.932 -19.742,0.204 -29.387,-1.812 -12.557,-2.625 -24.608,-7.354 -36.002,-13.197 -0.597,-0.307 -1.192,-0.616 -1.786,-0.928 -0.185,-0.108 -18.963,-10.235 -26.447,-13.57 l -8.314,-3.703 8.452,-3.381 c 0.246,-0.092 4.503,-1.767 12.294,-2.981 -5.855,-4.472 -13.385,-11.526 -19.747,-21.73 l -4.672,-7.483 8.668,1.69 c 0.276,0.046 23.988,4.426 44.042,-7.883 l 12.724,0 c -16.673,15.229 -37.819,16.827 -49.513,16.32 10.127,12.785 21.376,18.287 21.499,18.348 l 13.876,6.593 -15.336,0.722 c -4.395,0.2 -8.16,0.645 -11.234,1.168 8.007,4.072 16.812,8.836 17.335,9.113 11.373,5.988 23.46,10.826 36.091,13.374 9.537,1.925 19.352,2.483 29.021,1.299 7.811,-0.957 15.441,-3.048 22.721,-6.019 6.532,-2.665 12.799,-5.937 18.89,-9.484 5.119,-2.981 9.872,-6.152 14.268,-10.136 8.4,-7.611 15.601,-16.538 22.246,-25.689 2.09,-2.879 4.122,-5.8 6.1,-8.756 0.838,-1.252 1.665,-2.51 2.482,-3.774 0.227,-0.351 1.631,-3.079 1.96,-3.079 0,0 9.037,0 9.037,0 -3.264,5.508 -6.788,10.868 -10.456,16.114 -6.168,8.823 -12.818,17.372 -20.296,25.13 C 14.395,-10.666 9.561,-6.393 4.277,-2.739 2.882,-1.775 1.452,-0.87 0,0"
               inkscape:connector-curvature="0" />
          </g>
        </g>
      </g>
    </g>
  </g>
</svg>
