<?xml version="1.0" encoding="UTF-8" standalone="no"?>
<!-- Created with Inkscape (http://www.inkscape.org/) -->

<svg
   xmlns:dc="http://purl.org/dc/elements/1.1/"
   xmlns:cc="http://creativecommons.org/ns#"
   xmlns:rdf="http://www.w3.org/1999/02/22-rdf-syntax-ns#"
   xmlns:svg="http://www.w3.org/2000/svg"
   xmlns="http://www.w3.org/2000/svg"
   xmlns:sodipodi="http://sodipodi.sourceforge.net/DTD/sodipodi-0.dtd"
   xmlns:inkscape="http://www.inkscape.org/namespaces/inkscape"
   width="562.83185"
   height="287.13626"
   id="svg2"
   version="1.1"
   inkscape:version="0.48.4 r9939"
   sodipodi:docname="logo2.svg">
  <defs
     id="defs4">
    <clipPath
       id="clipPath3037"
       clipPathUnits="userSpaceOnUse">
      <path
         id="path3039"
         d="m 0,376.471 605.28,0 L 605.28,0 0,0 0,376.471 z"
         inkscape:connector-curvature="0" />
    </clipPath>
  </defs>
  <sodipodi:namedview
     id="base"
     pagecolor="#ffffff"
     bordercolor="#666666"
     borderopacity="1.0"
     inkscape:pageopacity="0.0"
     inkscape:pageshadow="2"
     inkscape:zoom="0.35"
     inkscape:cx="139.21599"
     inkscape:cy="100.94905"
     inkscape:document-units="px"
     inkscape:current-layer="layer1"
     showgrid="false"
     inkscape:window-width="1024"
     inkscape:window-height="551"
     inkscape:window-x="0"
     inkscape:window-y="0"
     inkscape:window-maximized="1"
     borderlayer="false"
     showguides="true"
     inkscape:guide-bbox="true"
     fit-margin-top="0"
     fit-margin-left="0"
     fit-margin-right="0"
     fit-margin-bottom="0">
    <sodipodi:guide
       orientation="1,0"
       position="-30.06972,55.234763"
       id="guide3022" />
    <sodipodi:guide
       orientation="0,1"
       position="212.78742,-47.622377"
       id="guide3024" />
    <sodipodi:guide
       orientation="1,0"
       position="595.64456,135.23476"
       id="guide3029" />
    <sodipodi:guide
       orientation="0,1"
       position="-98.64115,326.66334"
       id="guide3034" />
  </sodipodi:namedview>
  <metadata
     id="metadata7">
    <rdf:RDF>
      <cc:Work
         rdf:about="">
        <dc:format>image/svg+xml</dc:format>
        <dc:type
           rdf:resource="http://purl.org/dc/dcmitype/StillImage" />
        <dc:title />
      </cc:Work>
    </rdf:RDF>
  </metadata>
  <g
     inkscape:label="Layer 1"
     inkscape:groupmode="layer"
     id="layer1"
     transform="translate(-235.78401,-346.17498)">
    <g
       transform="matrix(1.25,0,0,-1.25,130.27126,810.51386)"
       inkscape:label="CATNORMALRGBBLK"
       id="g3031">
      <g
         id="g3033">
        <g
           clip-path="url(#clipPath3037)"
           id="g3035">
          <g
             transform="translate(10.8911,75.4635)"
             id="g3041" />
          <g
             transform="translate(115.3944,75.0003)"
             id="g3045" />
          <g
             transform="translate(269.4714,66.9255)"
             id="g3049" />
          <g
             transform="translate(364.8406,73.7428)"
             id="g3053" />
          <g
             transform="translate(581.0671,50.2623)"
             id="g3059" />
          <g
             transform="translate(123.4372,5.1831)"
             id="g3063" />
          <g
             transform="translate(146.7011,12.8575)"
             id="g3067" />
          <g
             transform="translate(170.6246,18.9896)"
             id="g3071" />
          <g
             transform="translate(194.2278,18.4913)"
             id="g3075" />
          <g
             transform="translate(209.2626,5.7744)"
             id="g3079" />
          <g
             transform="translate(253.025,9.812)"
             id="g3085" />
          <g
             transform="translate(267.1658,5.7744)"
             id="g3089" />
          <g
             transform="translate(310.3674,5.2011)"
             id="g3095" />
          <g
             transform="translate(342.6236,5.1831)"
             id="g3099" />
          <g
             transform="translate(368.4748,19.0076)"
             id="g3103" />
          <g
             transform="translate(381.2578,12.2064)"
             id="g3107" />
          <g
             transform="translate(411.6246,18.4523)"
             id="g3111" />
          <g
             transform="translate(425.8453,5.7744)"
             id="g3115" />
          <g
             transform="translate(443.6947,5.1831)"
             id="g3119" />
          <g
             transform="translate(466.8371,19.0076)"
             id="g3123" />
          <g
             transform="translate(481.0563,5.1831)"
             id="g3127" />
          <g
             transform="translate(402.7215,220.6091)"
             id="g3131">
            <path
               id="path3133"
               style="fill:#000000;fill-opacity:1;fill-rule:nonzero;stroke:none"
               d="m 0,0 c 1.132,0.526 2.257,1.068 3.372,1.631 1.045,0.523 2.335,1.153 3.826,1.936 1.491,0.769 3.181,1.614 4.964,2.613 1.813,0.983 3.765,2.044 5.793,3.242 2.044,1.168 4.149,2.49 6.316,3.857 2.167,1.383 4.38,2.89 6.562,4.457 1.091,0.814 2.182,1.629 3.273,2.443 1.091,0.846 2.136,1.752 3.196,2.613 1.076,0.86 2.09,1.782 3.089,2.72 0.984,0.953 2.044,1.813 2.951,2.827 0.937,0.984 1.859,1.952 2.766,2.92 0.876,0.984 1.69,2.029 2.505,3.012 0.399,0.507 0.83,0.984 1.198,1.491 0.369,0.522 0.723,1.045 1.076,1.552 0.691,1.029 1.429,1.982 2.029,2.996 1.137,2.06 2.351,3.934 3.104,5.84 0.43,0.937 0.83,1.829 1.214,2.674 0.323,0.86 0.584,1.721 0.86,2.489 0.538,1.568 0.999,2.936 1.214,4.103 0.446,2.014 0.738,3.274 0.799,3.566 -0.092,-0.277 -0.491,-1.506 -1.121,-3.473 -0.308,-1.138 -0.892,-2.444 -1.553,-3.934 -0.338,-0.738 -0.66,-1.552 -1.06,-2.367 C 55.928,48.409 55.451,47.579 54.959,46.703 54.053,44.921 52.716,43.199 51.44,41.325 50.779,40.387 49.965,39.527 49.227,38.589 48.843,38.128 48.459,37.667 48.06,37.206 47.66,36.745 47.214,36.315 46.784,35.869 45.908,34.993 45.047,34.071 44.126,33.195 43.157,32.35 42.189,31.49 41.221,30.629 40.268,29.753 39.177,29 38.148,28.186 37.118,27.356 36.073,26.557 34.951,25.835 33.86,25.097 32.784,24.313 31.678,23.606 30.556,22.915 29.434,22.239 28.328,21.547 26.084,20.226 23.841,18.965 21.643,17.828 19.43,16.691 17.294,15.6 15.204,14.647 13.145,13.664 11.163,12.803 9.334,12.019 7.521,11.205 5.815,10.544 4.324,9.929 2.849,9.315 1.512,8.792 0.406,8.362 0.175,8.27 -0.055,8.178 -0.271,8.101 c -4.01,4.164 -9.327,4.625 -19.946,3.857 -10.419,-0.784 -15.721,3.196 -17.211,5.686 -1.261,2.105 -3.212,3.903 -5.671,6.193 -2.366,2.182 -5.302,4.917 -8.36,8.652 -3.964,4.84 -3.242,9.65 2.505,16.596 6.316,7.622 6.377,10.88 5.671,23.451 -0.415,7.407 3.826,11.832 12.678,20.33 2.335,2.244 4.978,4.78 7.729,7.623 9.082,9.42 5.978,23.619 2.228,33.162 8.355,-3.874 16.774,-7.612 25.287,-11.126 5.748,-2.373 11.539,-4.644 17.389,-6.754 6.438,-2.322 13.005,-4.258 19.361,-6.807 7.286,-2.921 13.878,-7.338 19.917,-12.313 0.573,-0.472 1.144,-0.948 1.706,-1.433 11.433,-9.805 49.421,-44.765 58.149,-83.152 7.915,-34.761 -1.844,-84.828 -3.088,-90.913 l 7.852,0 c 2.152,10.818 10.619,57.98 2.736,92.618 -9.267,40.693 -48.761,77.098 -60.655,87.286 -6.135,5.261 -12.798,10.014 -20.122,13.479 -5.877,2.782 -12.108,4.602 -18.243,6.701 -4.288,1.467 -8.542,3.031 -12.769,4.668 -6.359,2.463 -12.657,5.084 -18.91,7.806 -8.456,3.68 -16.797,7.6 -25.141,11.527 l -11.74,5.624 6.808,-11.095 c 0.03,-0.061 3.749,-6.177 5.931,-13.646 2.674,-9.159 1.921,-15.982 -2.228,-20.285 -2.659,-2.75 -5.132,-5.132 -7.514,-7.422 -8.76,-8.406 -15.675,-15.045 -15.03,-26.309 0.646,-11.587 0.707,-12.524 -3.918,-18.133 -8.053,-9.712 -8.898,-18.579 -2.536,-26.355 3.396,-4.134 6.547,-7.069 9.082,-9.42 1.936,-1.798 3.612,-3.35 4.303,-4.518 3.12,-5.179 11.157,-10.373 24.373,-9.389 5.071,0.384 8.205,0.384 10.265,0.092 -4.503,-1.86 -8.959,-3.627 -13.324,-5.348 -11.602,-4.595 -22.574,-8.944 -31.656,-13.846 -34.346,-18.579 -45.871,-59.164 -47.147,-64.035 l 7.991,0 c 2.72,8.928 14.415,41.922 42.798,57.274 8.698,4.687 19.455,8.943 30.842,13.461 C -13.238,-5.477 -6.488,-3.012 0,0"
               inkscape:connector-curvature="0" />
          </g>
          <g
             transform="translate(239.6852,198.2943)"
             id="g3135">
            <path
               id="path3137"
               style="fill:#000000;fill-opacity:1;fill-rule:nonzero;stroke:none"
               d="m 0,0 c -2.645,1.584 -5.362,3.049 -8.065,4.533 -5.865,3.22 -11.881,6.172 -18.162,8.494 -7.547,2.79 -15.425,4.658 -23.439,5.419 -9.82,0.932 -19.742,0.204 -29.387,-1.812 -12.557,-2.625 -24.608,-7.354 -36.002,-13.197 -0.597,-0.307 -1.192,-0.616 -1.786,-0.928 -0.185,-0.108 -18.963,-10.235 -26.447,-13.57 l -8.314,-3.703 8.452,-3.381 c 0.246,-0.092 4.503,-1.767 12.294,-2.981 -5.855,-4.472 -13.385,-11.526 -19.747,-21.73 l -4.672,-7.483 8.668,1.69 c 0.276,0.046 23.988,4.426 44.042,-7.883 l 12.724,0 c -16.673,15.229 -37.819,16.827 -49.513,16.32 10.127,12.785 21.376,18.287 21.499,18.348 l 13.876,6.593 -15.336,0.722 c -4.395,0.2 -8.16,0.645 -11.234,1.168 8.007,4.072 16.812,8.836 17.335,9.113 11.373,5.988 23.46,10.826 36.091,13.374 9.537,1.925 19.352,2.483 29.021,1.299 7.811,-0.957 15.441,-3.048 22.721,-6.019 6.532,-2.665 12.799,-5.937 18.89,-9.484 5.119,-2.981 9.872,-6.152 14.268,-10.136 8.4,-7.611 15.601,-16.538 22.246,-25.689 2.09,-2.879 4.122,-5.8 6.1,-8.756 0.838,-1.252 1.665,-2.51 2.482,-3.774 0.227,-0.351 1.631,-3.079 1.96,-3.079 0,0 9.037,0 9.037,0 -3.264,5.508 -6.788,10.868 -10.456,16.114 -6.168,8.823 -12.818,17.372 -20.296,25.13 C 14.395,-10.666 9.561,-6.393 4.277,-2.739 2.882,-1.775 1.452,-0.87 0,0"
               inkscape:connector-curvature="0" />
          </g>
        </g>
      </g>
    </g>
  </g>
</svg>
