<?xml version="1.0" encoding="UTF-8"?>
<svg viewBox="0 0 640 480" xmlns="http://www.w3.org/2000/svg">
 <path d="m217.88 25.508v0.803h3.747l-3.747-0.803m26.233 8.8327l2.998 5.6209h1.499c0.827-3.9759-0.91499-5.3282-4.497-5.6209m-7.495 4.0149c5.526 4.1705 19.394 16.688 11.992 23.286 1.937 4.475 5.947 10.615 10.494 12.045l8.245-8.0298-8.245 12.045c7.296 5.5059 12.78 13.585 18.113 21.107 0.642 0.9057 4.888 8.4011 6.061 4.3891 0.79199-2.711-6.081-12.23-6.935-15.86 4.729 4.564 4.611 12.43 11.992 13.65l-3.747-6.4236 1.499-1.606 3.747 1.606-0.749-3.2119 2.248 2.4089h2.998v1.6059c-2.555 0.2112-3.673 0.5452-4.497 3.2119l3.748 0.803v0.8028l-3.748 4.818 2.998 7.227c-2.755-3.453-4.548-6.104-8.994-6.424 1.022 4.026 4.141 7.006 6.281 10.439 3.76 6.028 6.065 21.103 14.706 20.074l-2.998 3.212c1.574 5.911 2.17 13.327 8.994 12.044-1.782 1.375-5.469 1.936-6.722 3.696-2.052 2.884 0.62799 4.718 2.974 4.334l0.75 4.818-5.996 0.803c-0.586 7.681-1.822 21.44-8.249 25.942-5.888 4.126-23.335 3.17-23.079 14.203 0.19302 8.342 10.313 8.428 15.585 10.425 3.879 1.47 6.083 5.385 9.75 7.297 4.028 2.101 8.822 1.544 12.738 3.74 11.336 6.353 11.453 19.025 4.416 29.129-4.15 5.959-9.637 9.99-13.88 15.626-3.661 4.862 4.648 5.243 7.216 5.251 0.97198 5.977 4.619 1.164 8.135 2.309 2.674 0.871 2.813 4.892 3.108 7.327 17.581-0.16901 28.704-18.075 37.925-31.086 4.786-6.754 11.233-12.128 16.027-18.835 2.494-3.491 2.48-7.375 4.372-11.071 1.585-3.093 4.416-5.037 6.135-8.064l-7.495-0.803c-1.125-17.075 15.727-20.927 28.482-17.665l0.749 6.424 5.996-7.227c-3.742-3.559-1.511-7.963-1.499-12.848l11.993-6.423c-1.721-10.568 2.159-21.124 8.245-28.908v-0.80301c-8.505-6.58-20.395-7.995-28.94-0.32999-3.479 3.12-4.546 7.377-9.286 9.15-11.745 4.393-23.687-5.317-34.478-8.851-5.253-1.72-8.704 0.302-12.742-4.786l7.495 3.212c-1.74-3.996-5.44-6.423-7.084-10.439-2.461-6.018-0.018005-15.2-5.658-19.271l-2.998 2.409v-0.803l4.497-2.409c-1.8-3.057-4.306-3.175-7.495-3.212-0.81702-5.975-4.653-7.114-9.744-7.227 0.51199 3.377 3.126 4.326 4.062 7.31 0.82199 2.622-1.128 5.144-0.142 7.81 0.948 2.564 4.015 4.848 3.045 7.982-0.58798 1.897-2.855 2.64-4.265 1.271-1.981-1.927-0.85101-5.411-3.243-7.255-1.975-1.524-4.741-0.871-6.952-1.797-6.981-2.923-16.347-11.794-8.245-19.336-1.591-4.4002-5.164-11.258-9.744-12.044-0.035004-4.1281-0.186-6.8581-4.497-7.2267v-0.803l4.497-0.803-1.499-3.2118 3.748-0.803c-1.945-7.719-7.797-15.17-14.991-12.045l-2.998-3.2118v-0.803h2.998c-1.932-6.4099-13.272-8.2809-18.738-9.6357v2.409h-4.497l2.998-2.409c-1.919-6.7034-5.631 0.221-7.495 3.212-0.85202-5.1197-16.222-25.558-19.488-16.862m60.712 43.36v3.2119h3.747l-3.747-3.2119m32.229 21.68c0.422-2.843-0.728-13.759-5.787-11.1-6.049 3.179 3.231 10.041 5.787 11.1m-16.489-7.2267c1.427 2.7036 2.634 2.7574 5.246 1.606l-5.246-1.606m-2.998 9.6357l-1.5-3.212c-3.182 1.959-1.734 4.022 1.5 3.212m25.483 4.015c1.215 2.361 2.014 2.809 4.497 2.409l-1.498-3.212-2.999 0.803m-23.984 6.424l5.246 4.817 2.249-5.62-7.495 0.803m46.47 28.907l-0.749 0.803v1.606l0.749 0.803h1.499l0.75-0.803v-1.606l-0.75-0.803h-1.499m16.49 9.635l3.747 0.803-3.747-0.803m-142.41 92.342l0.749 3.212c-4.946-0.76799-14.97 5.846-16.251 11.245-1.052 4.435 1.332 9.379-0.044998 13.616-1.457 4.482-6.993 10.34-10.687 12.76-3.1 2.031-6.847 1.329-9.497 4.253-4.153 4.584-4.003 11.218-6.267 16.743-3.197 7.805-8.767 14.552-14.966 19.851-4.454 3.807-10.838 4.448-15.74 7.665-7.49 4.916-14.2 12.96-21.765 17.198-4.634 2.596-10.24 3.081-14.962 5.731-4.506 2.53-8.587 6.992-13.52 8.567-3.842 1.227-8.2026-0.668-11.923 0.892-3.6556 1.532-5.9806 6.316-9.7845 8.349l0.7495 2.408c-6.5201 0.47-9.3705 6.127-14.244 9.931-3.3399 2.607-7.4848 3.739-8.2418 8.538-8.8218 0.68698-18.747 14.1-5.2467 16.059v0.80301h-5.2467l1.4991 3.212-11.992-4.015-3.7477 10.439 9.7438-1.606v0.80301c-2.9745 1.204-8.4678 4.51-2.2486 5.621v0.80298l-14.99 1.606 0.7494 8.029 5.2468-1.605-1.4991 4.014h4.4972c-5.2032 8.396 11.14 5.278 15.74 6.281 4.9043 1.069 7.5403-3.732 11.996-2.934 4.5691 0.81802 4.5579 6.025 8.2882 7.381 2.8332 1.03 6.0307-1.079 8.9366-1.017 3.0177 0.06601 6.0382 1.704 9.0055 2.334v1.606l-4.4972 1.606v1.606c6.8036 2.403 12.65 0.98599 19.488 0 1.336 6.559 9.67 3.762 14.241 2.903 12.449-2.34 21.962-7.646 31.256-16.951 1.883-1.885 2.581-4.612 4.765-6.245 4.765-3.566 13.616 0.194 14.197-7.811l-5.246 1.606c4.145-10.16 9.684-22.198 17.988-28.907 0.179-7.375 0.311-16.789 4.399-23.025 2.669-4.072 7.991-5.596 12.091-7.252 7.591-3.067 14.301-7.936 22.486-9.069 0.543-9.629 12.644 1.34 17.239 1.606v-4.818h0.74899l1.499 4.818h0.75c9.364-8.267-2.681-10.733-8.994-12.045 0.17299-2.673-0.72401-5.405-0.088013-8.029 2.362-9.741 11.938-7.402 17.632-13.348 3.847-4.016 5.272-10.456 8.841-14.788 8.004-9.715 18.162-16.795 24.582-28.072l-4.497-2.409-2.906-8.798 11.151-10.474-0.75-0.803-18.738 6.424v-3.212l-8.245-4.817c-3.469 1.54-11.292 9.124-14.879 7.784-4.079-1.526-2.135-12.948-2.36-16.617-2.74-0.77701-5.73 0.98999-8.232-0.15402-2.957-1.353-4.812-5.789-1.358-7.822 2.173-1.279 5.698-0.107 8.091-0.054001v-1.606h-14.99m38.975 14.454c4.405-0.487 7.188-2.51 8.245-7.227-5.285 0.121-7.154 1.677-8.245 7.227m-2.998 2.409v1.606c3.074 1.246 5.492 1.443 7.495-1.606l-3.747-1.606-3.748 1.606m5.996 4.817c4.845 7.197 13.075-0.41202 17.239-4.014-5.119-3.66-12.979 0.771-17.239 4.014m-226.36 139.72l-0.7495 4.014 4.4972 1.606-0.7496-5.62h-2.9981m-12.742 21.68h8.9943c-0.4721-6.494-8.5167-6.416-8.9943 0z"/>
</svg>
